<svg width="20" height="24" viewBox="0 0 20 24" fill="none" xmlns="http://www.w3.org/2000/svg">
<path d="M9.9061 0.388672C7.04062 0.388672 4.93848 1.25117 3.41343 2.61914C5.77002 5.94971 8.96587 7.86436 11.8089 8.38818C13.3998 8.68115 14.8723 8.53857 16.0298 7.99688C17.1699 7.46328 18.0171 6.55889 18.4361 5.22041C18.17 4.69487 17.8619 4.19912 17.5085 3.74141C15.9463 1.71782 13.5325 0.388721 9.90601 0.388721L9.9061 0.388672ZM2.75947 3.27432C2.59253 3.46086 2.43347 3.65431 2.28271 3.85415C0.781445 5.84399 0.102197 8.48467 0.0546875 11.0776C2.92188 12.3677 4.48911 14.1366 5.02568 16.0296C6.50566 17.0047 8.4252 17.4652 10.3099 17.3956C11.9605 17.3347 13.5735 16.8675 14.8356 16.0322C15.3339 14.1645 16.903 12.4541 19.758 11.0912C19.7316 9.44687 19.4715 7.83735 18.9424 6.38999C18.4207 7.4146 17.6231 8.19439 16.6549 8.7042C16.9234 9.55981 16.7545 10.4503 16.3595 11.1871C15.9308 11.9869 15.241 12.6356 14.4481 12.9534C13.6551 13.2711 12.7015 13.2143 12.0013 12.552C11.3214 11.9088 10.902 10.7963 10.8168 9.09937C7.98301 8.34937 5.01313 6.40322 2.75952 3.27427L2.75947 3.27432ZM4.80615 8.04985C5.08496 9.07349 6.35449 9.85103 7.88584 9.85103C8.22617 9.85103 8.5376 9.80552 8.84458 9.73481C8.84644 9.76401 8.84458 9.79258 8.84458 9.82197C8.84458 11.0181 7.6896 12.0007 6.25884 12.0007C4.82808 12.0007 3.6729 11.018 3.6729 9.82197C3.6729 9.07441 4.11675 8.4394 4.8061 8.05L4.8062 8.04985H4.80615ZM10.1002 11.6684C10.8131 13.089 11.2627 14.5095 11.6367 15.9301C10.6124 15.5627 9.58804 15.606 8.56362 15.9301C8.84028 14.5095 9.39771 13.089 10.1002 11.6684H10.1002ZM14.6615 17.1983C14.1793 17.4547 13.6674 17.6663 13.1357 17.8339V20.0053C13.7754 19.7794 14.3744 19.4837 14.9082 19.1206C14.7255 18.4836 14.6369 17.8401 14.6615 17.1984V17.1983ZM5.22978 17.2093C5.27432 17.8727 5.20503 18.5336 5.04199 19.1776C5.56641 19.521 6.14565 19.7998 6.75859 20.0137V17.8409C6.22822 17.6749 5.71533 17.4648 5.22978 17.2092V17.2093ZM12.2232 18.074C11.6285 18.2018 11.0177 18.2787 10.4034 18.3046V20.5285C11.0216 20.5 11.6337 20.4144 12.2232 20.2738V18.074V18.074ZM15.2236 20.0078C13.8187 20.9056 12.0927 21.38 10.3436 21.4445C8.38267 21.5169 6.38081 21.0741 4.75146 20.0744C4.51318 20.678 4.19688 21.2595 3.82012 21.8051C4.90767 22.8534 7.273 23.538 9.74346 23.565C12.2278 23.592 14.7875 22.9748 16.2238 21.8064C15.8215 21.2219 15.4826 20.6198 15.2235 20.0078L15.2236 20.0078Z" fill="#D5C6DC"/>
</svg>
