<svg width="21" height="24" viewBox="0 0 21 24" fill="none" xmlns="http://www.w3.org/2000/svg">
<path d="M10.6293 0.388672C7.76367 0.388672 5.6614 1.25117 4.13627 2.61914C6.49299 5.94971 9.68902 7.86436 12.5322 8.38818C14.1231 8.68115 15.5957 8.53857 16.7533 7.99688C17.8935 7.46328 18.7407 6.55889 19.1598 5.22041C18.8937 4.69487 18.5856 4.19912 18.2322 3.74141C16.6699 1.71782 14.2559 0.388721 10.6292 0.388721L10.6293 0.388672ZM3.48228 3.27432C3.31533 3.46086 3.15626 3.65431 3.00549 3.85415C1.50414 5.84399 0.824856 8.48467 0.777344 11.0776C3.64469 12.3677 5.21201 14.1366 5.74861 16.0296C7.22868 17.0047 9.14831 17.4652 11.0331 17.3956C12.6838 17.3347 14.2969 16.8675 15.5591 16.0322C16.0574 14.1645 17.6266 12.4541 20.4818 11.0912C20.4554 9.44687 20.1952 7.83735 19.6661 6.38999C19.1443 7.4146 18.3468 8.19439 17.3785 8.7042C17.647 9.55981 17.4781 10.4503 17.083 11.1871C16.6543 11.9869 15.9645 12.6356 15.1715 12.9534C14.3785 13.2711 13.4249 13.2143 12.7246 12.552C12.0447 11.9088 11.6252 10.7963 11.5401 9.09937C8.7061 8.34937 5.73606 6.40322 3.48233 3.27427L3.48228 3.27432ZM5.52907 8.04985C5.80789 9.07349 7.0775 9.85103 8.60893 9.85103C8.94928 9.85103 9.26072 9.80552 9.56772 9.73481C9.56958 9.76401 9.56772 9.79258 9.56772 9.82197C9.56772 11.0181 8.41268 12.0007 6.98184 12.0007C5.551 12.0007 4.39576 11.018 4.39576 9.82197C4.39576 9.07441 4.83963 8.4394 5.52902 8.05L5.52912 8.04985H5.52907ZM10.8234 11.6684C11.5363 13.089 11.986 14.5095 12.36 15.9301C11.3356 15.5627 10.3112 15.606 9.28675 15.9301C9.56342 14.5095 10.1209 13.089 10.8235 11.6684H10.8234ZM15.385 17.1983C14.9028 17.4547 14.3908 17.6663 13.8591 17.8339V20.0053C14.4988 19.7794 15.0979 19.4837 15.6317 19.1206C15.449 18.4836 15.3604 17.8401 15.385 17.1984V17.1983ZM5.95273 17.2093C5.99726 17.8727 5.92797 18.5336 5.76492 19.1776C6.28937 19.521 6.86865 19.7998 7.48162 20.0137V17.8409C6.95122 17.6749 6.4383 17.4648 5.95273 17.2092V17.2093ZM12.9466 18.074C12.3518 18.2018 11.7409 18.2787 11.1266 18.3046V20.5285C11.7448 20.5 12.357 20.4144 12.9466 20.2738V18.074V18.074ZM15.9471 20.0078C14.5421 20.9056 12.816 21.38 11.0668 21.4445C9.10578 21.5169 7.10382 21.0741 5.47438 20.0744C5.23609 20.678 4.91976 21.2595 4.54298 21.8051C5.63059 22.8534 7.99605 23.538 10.4666 23.565C12.9512 23.592 15.511 22.9748 16.9474 21.8064C16.545 21.2219 16.2061 20.6198 15.947 20.0078L15.9471 20.0078Z" fill="#D5C6DC"/>
</svg>
